<svg width="59" height="59" viewBox="0 0 59 59" fill="none" xmlns="http://www.w3.org/2000/svg">
<circle cx="29.5" cy="29.6112" r="29" fill="#F8C301" fill-opacity="0.32"/>
<g clip-path="url(#clip0_557_41144)">
<mask id="mask0_557_41144" style="mask-type:luminance" maskUnits="userSpaceOnUse" x="10" y="16" width="39" height="28">
<path d="M45.7857 16.4286H13.2143C11.7152 16.4286 10.5 17.6438 10.5 19.1428V40.8571C10.5 42.3562 11.7152 43.5714 13.2143 43.5714H45.7857C47.2848 43.5714 48.5 42.3562 48.5 40.8571V19.1428C48.5 17.6438 47.2848 16.4286 45.7857 16.4286Z" fill="white"/>
</mask>
<g mask="url(#mask0_557_41144)">
<path d="M45.7857 16.4286H13.2143C11.7152 16.4286 10.5 17.6438 10.5 19.1428V40.8571C10.5 42.3562 11.7152 43.5714 13.2143 43.5714H45.7857C47.2848 43.5714 48.5 42.3562 48.5 40.8571V19.1428C48.5 17.6438 47.2848 16.4286 45.7857 16.4286Z" fill="white"/>
<mask id="mask1_557_41144" style="mask-type:alpha" maskUnits="userSpaceOnUse" x="10" y="16" width="39" height="28">
<path d="M45.7857 16.4286H13.2143C11.7152 16.4286 10.5 17.6438 10.5 19.1428V40.8571C10.5 42.3562 11.7152 43.5714 13.2143 43.5714H45.7857C47.2848 43.5714 48.5 42.3562 48.5 40.8571V19.1428C48.5 17.6438 47.2848 16.4286 45.7857 16.4286Z" fill="white"/>
</mask>
<g mask="url(#mask1_557_41144)">
<path d="M48.5 16.4286H10.5V43.5714H48.5V16.4286Z" fill="#043CAE"/>
<path fill-rule="evenodd" clip-rule="evenodd" d="M28.2205 22.2319L29.5 21.8571L30.7795 22.2319L30.4047 20.9524L30.7795 19.6729L29.5 20.0476L28.2205 19.6729L28.5952 20.9524L28.2205 22.2319ZM28.2205 40.3272L29.5 39.9523L30.7795 40.3272L30.4047 39.0477L30.7795 37.7681L29.5 38.1428L28.2205 37.7681L28.5952 39.0477L28.2205 40.3272ZM38.5476 30.9048L37.268 31.2795L37.6429 30L37.268 28.7205L38.5476 29.0952L39.8272 28.7205L39.4524 30L39.8272 31.2795L38.5476 30.9048ZM19.1729 31.2795L20.4524 30.9048L21.7319 31.2795L21.3571 30L21.7319 28.7205L20.4524 29.0952L19.1729 28.7205L19.5476 30L19.1729 31.2795ZM37.3355 26.381L36.056 26.7557L36.4307 25.4762L36.056 24.1967L37.3355 24.5714L38.615 24.1967L38.2402 25.4762L38.615 26.7557L37.3355 26.381ZM20.385 35.8034L21.6645 35.4286L22.9441 35.8034L22.5693 34.5238L22.9441 33.2442L21.6645 33.6191L20.385 33.2442L20.7598 34.5238L20.385 35.8034ZM34.0238 23.0693L32.7443 23.4441L33.119 22.1645L32.7443 20.885L34.0238 21.2598L35.3033 20.885L34.9286 22.1645L35.3033 23.4441L34.0238 23.0693ZM23.6967 39.115L24.9761 38.7403L26.2558 39.115L25.8809 37.8355L26.2558 36.5559L24.9761 36.9306L23.6967 36.5559L24.0714 37.8355L23.6967 39.115ZM37.3355 35.4286L36.056 35.8034L36.4307 34.5238L36.056 33.2442L37.3355 33.6191L38.615 33.2442L38.2402 34.5238L38.615 35.8034L37.3355 35.4286ZM20.385 26.7557L21.6645 26.381L22.9441 26.7557L22.5693 25.4762L22.9441 24.1967L21.6645 24.5714L20.385 24.1967L20.7598 25.4762L20.385 26.7557ZM34.0238 38.7403L32.7443 39.115L33.119 37.8355L32.7443 36.5559L34.0238 36.9306L35.3033 36.5559L34.9286 37.8355L35.3033 39.115L34.0238 38.7403ZM23.6967 23.4441L24.9761 23.0693L26.2558 23.4441L25.8809 22.1645L26.2558 20.885L24.9761 21.2598L23.6967 20.885L24.0714 22.1645L23.6967 23.4441Z" fill="#FFD429"/>
</g>
</g>
</g>
<defs>
<clipPath id="clip0_557_41144">
<rect width="38" height="38" fill="white" transform="translate(10.5 11)"/>
</clipPath>
</defs>
</svg>
