<svg width="491" height="334" viewBox="0 0 491 334" fill="none" xmlns="http://www.w3.org/2000/svg">
<path d="M232.741 258.512C286.082 311.853 319.337 375.149 330.002 434.347C340.667 493.547 328.736 548.597 291.784 585.548C254.833 622.5 199.783 634.431 140.583 623.766C81.3849 613.102 18.0884 579.846 -35.2527 526.505C-88.5939 473.164 -121.849 409.867 -132.514 350.67C-143.179 291.47 -131.248 236.42 -94.2962 199.468C-57.3446 162.517 -2.29461 150.585 56.9053 161.25C116.103 171.915 179.4 205.17 232.741 258.512Z" stroke="#F8C301"/>
<path d="M264.741 226.512C318.082 279.853 351.337 343.149 362.002 402.347C372.667 461.547 360.736 516.597 323.784 553.548C286.833 590.5 231.783 602.431 172.583 591.766C113.385 581.102 50.0884 547.846 -3.25275 494.505C-56.5939 441.164 -89.8494 377.867 -100.514 318.67C-111.179 259.47 -99.2477 204.42 -62.2962 167.468C-25.3446 130.517 29.7054 118.585 88.9053 129.25C148.103 139.915 211.4 173.17 264.741 226.512Z" stroke="#F8C301"/>
<path d="M296.741 194.512C350.082 247.853 383.337 311.149 394.002 370.347C404.667 429.547 392.736 484.597 355.784 521.548C318.833 558.5 263.783 570.431 204.583 559.766C145.385 549.102 82.0884 515.846 28.7473 462.505C-24.5939 409.164 -57.8494 345.867 -68.5139 286.67C-79.1789 227.47 -67.2477 172.42 -30.2962 135.468C6.65539 98.5166 61.7054 86.5854 120.905 97.2503C180.103 107.915 243.4 141.17 296.741 194.512Z" stroke="#F8C301"/>
</svg>
