<svg width="558" height="1046" viewBox="0 0 558 1046" fill="none" xmlns="http://www.w3.org/2000/svg">
<g opacity="0.5">
<path opacity="0.0344828" d="M428.036 802.595C423.128 808.443 415.73 812.069 406.004 813.528C396.27 814.987 384.267 814.265 370.269 811.467C342.275 805.872 306.51 792.019 265.392 771.101C183.17 729.272 79.742 659.3 -25.3829 571.089C-130.508 482.879 -217.377 393.173 -272.848 319.464C-300.588 282.603 -320.442 249.787 -330.813 223.189C-335.999 209.89 -338.795 198.195 -339.047 188.355C-339.3 178.523 -337.014 170.608 -332.107 164.76C-327.2 158.912 -319.802 155.286 -310.076 153.827C-300.342 152.367 -288.338 153.09 -274.341 155.888C-246.346 161.483 -210.581 175.336 -169.463 196.254C-87.2409 238.083 16.1867 308.055 121.312 396.266C226.437 484.476 313.306 574.182 368.777 647.891C396.517 684.752 416.37 717.568 426.742 744.166C431.928 757.465 434.724 769.16 434.976 779C435.229 788.832 432.943 796.747 428.036 802.595Z" stroke="#2B2C3B" stroke-width="2"/>
<path opacity="0.0689655" d="M398.795 838.475C393.396 843.873 385.71 846.84 375.894 847.445C366.07 848.051 354.175 846.286 340.475 842.279C313.074 834.265 278.653 817.347 239.514 792.925C161.251 744.089 64.3154 665.369 -32.7215 568.332C-129.758 471.295 -208.479 374.36 -257.314 296.096C-281.736 256.957 -298.654 222.536 -306.668 195.136C-310.675 181.435 -312.441 169.54 -311.835 159.716C-311.229 149.9 -308.263 142.214 -302.864 136.816C-297.466 131.418 -289.78 128.451 -279.964 127.845C-270.14 127.239 -258.245 129.005 -244.545 133.012C-217.144 141.026 -182.723 157.944 -143.584 182.366C-65.3207 231.201 31.6148 309.922 128.652 406.959C225.689 503.996 304.409 600.931 353.245 679.195C377.667 718.333 394.584 752.754 402.598 780.155C406.606 793.856 408.371 805.75 407.765 815.575C407.16 825.391 404.193 833.076 398.795 838.475Z" stroke="#2B2C3B" stroke-width="2"/>
<path opacity="0.103448" d="M366.882 871.686C361.034 876.593 353.119 878.879 343.287 878.627C333.447 878.374 321.752 875.579 308.453 870.393C281.855 860.021 249.039 840.168 212.178 812.427C138.469 756.957 48.763 670.087 -39.4473 564.962C-127.658 459.837 -197.63 356.41 -239.459 274.188C-260.377 233.069 -274.23 197.305 -279.825 169.31C-282.623 155.312 -283.346 143.309 -281.885 133.575C-280.427 123.849 -276.801 116.451 -270.953 111.544C-265.105 106.636 -257.19 104.351 -247.358 104.603C-237.518 104.855 -225.823 107.651 -212.524 112.837C-185.926 123.209 -153.11 143.062 -116.249 170.802C-42.5396 226.273 47.1661 313.143 135.376 418.268C223.587 523.392 293.559 626.82 335.388 709.042C356.306 750.16 370.159 785.925 375.754 813.92C378.552 827.918 379.275 839.921 377.815 849.655C376.356 859.381 372.73 866.779 366.882 871.686Z" stroke="#2B2C3B" stroke-width="2"/>
<path opacity="0.137931" d="M332.543 902.005C326.29 906.384 318.205 907.971 308.433 906.863C298.653 905.753 287.246 901.949 274.449 895.624C248.857 882.973 217.896 860.335 183.593 829.488C114.998 767.804 33.2052 673.447 -45.5071 561.034C-124.219 448.621 -184.912 339.489 -219.415 253.934C-236.669 211.149 -247.353 174.313 -250.487 145.937C-252.054 131.749 -251.728 119.728 -249.425 110.158C-247.124 100.597 -242.868 93.5428 -236.614 89.164C-230.36 84.7851 -222.276 83.1979 -212.504 84.3061C-202.724 85.4152 -191.316 89.2195 -178.52 95.5449C-152.927 108.195 -121.966 130.833 -87.6632 161.681C-19.0689 223.364 62.7242 317.722 141.437 430.135C220.149 542.548 280.841 651.68 315.344 737.235C332.599 780.02 343.282 816.856 346.417 845.232C347.984 859.42 347.657 871.44 345.354 881.01C343.053 890.572 338.797 897.626 332.543 902.005Z" stroke="#2B2C3B" stroke-width="2"/>
<path opacity="0.172414" d="M296.039 929.23C289.427 933.047 281.236 933.923 271.597 931.968C261.951 930.01 250.918 925.226 238.722 917.81C214.329 902.977 185.459 877.727 153.975 844.007C91.018 776.58 17.7599 675.452 -50.8555 556.607C-119.471 437.762 -170.42 323.755 -197.336 235.519C-210.796 191.393 -218.228 153.766 -218.877 125.225C-219.202 110.954 -217.829 99.0074 -214.701 89.6746C-211.575 80.3498 -206.72 73.6937 -200.109 69.8766C-193.497 66.0594 -185.306 65.1829 -175.667 67.1385C-166.021 69.0959 -154.989 73.8799 -142.792 81.2965C-118.399 96.1293 -89.5294 121.379 -58.0452 155.099C4.91198 222.527 78.17 323.654 146.785 442.499C215.401 561.344 266.35 675.351 293.266 763.588C306.726 807.713 314.158 845.341 314.807 873.882C315.132 888.153 313.759 900.099 310.631 909.432C307.505 918.756 302.65 925.412 296.039 929.23Z" stroke="#2B2C3B" stroke-width="2"/>
<path opacity="0.206897" d="M257.646 953.185C250.727 956.411 242.49 956.571 233.059 953.782C223.62 950.992 213.046 945.264 201.542 936.813C178.535 919.911 151.976 892.24 123.551 855.905C66.7097 783.247 2.54417 676.12 -55.4521 551.747C-113.448 427.373 -154.268 309.36 -173.39 219.113C-182.953 173.982 -187.078 135.851 -185.237 107.362C-184.317 93.1166 -181.908 81.3355 -177.978 72.3109C-174.052 63.2939 -168.635 57.0863 -161.716 53.86C-154.797 50.6336 -146.56 50.4743 -137.129 53.2626C-127.69 56.0532 -117.116 61.7805 -105.612 70.232C-82.6054 87.1342 -56.0462 114.804 -27.6207 151.14C29.2202 223.798 93.3857 330.925 151.382 455.298C209.378 579.672 250.198 697.685 269.32 787.932C278.883 833.063 283.008 871.194 281.167 899.683C280.247 913.928 277.838 925.709 273.908 934.734C269.982 943.751 264.565 949.959 257.646 953.185Z" stroke="#2B2C3B" stroke-width="2"/>
<path opacity="0.241379" d="M217.658 973.719C210.484 976.33 202.264 975.771 193.112 972.172C183.952 968.569 173.918 961.942 163.194 952.52C141.748 933.677 117.701 903.797 92.5509 865.122C42.2588 787.787 -12.3258 675.475 -59.2615 546.52C-106.197 417.566 -136.576 296.443 -147.76 204.874C-153.353 159.081 -154.139 120.735 -149.822 92.5148C-147.664 78.4042 -144.237 66.8779 -139.536 58.2301C-134.838 49.5897 -128.901 43.8778 -121.727 41.2667C-114.554 38.6556 -106.334 39.2149 -97.1818 42.8145C-88.0217 46.4172 -77.9878 53.0443 -67.2642 62.4662C-45.8179 81.3093 -21.7713 111.189 3.37917 149.864C53.6712 227.199 108.256 339.511 155.192 468.466C202.127 597.421 232.506 718.543 243.69 810.112C249.283 855.905 250.069 894.251 245.752 922.471C243.594 936.582 240.167 948.108 235.466 956.756C230.769 965.396 224.831 971.108 217.658 973.719Z" stroke="#2B2C3B" stroke-width="2"/>
<path opacity="0.275862" d="M176.377 990.702C169.003 992.678 160.864 991.404 152.06 987.021C143.249 982.633 133.831 975.157 123.969 964.836C104.247 944.196 82.8958 912.334 61.2117 871.614C17.8512 790.19 -26.737 673.548 -62.255 540.993C-97.7729 408.438 -117.479 285.13 -120.64 192.934C-122.221 146.828 -119.662 108.559 -112.902 80.8225C-109.522 66.9537 -105.103 55.7699 -99.6664 47.5648C-94.234 39.3666 -87.8217 34.1939 -80.4475 32.218C-73.0734 30.2421 -64.9338 31.5157 -56.1301 35.8992C-47.3189 40.2866 -37.9008 47.763 -28.0392 58.0836C-8.31672 78.7242 13.0341 110.586 34.7182 151.306C78.0787 232.73 122.667 349.372 158.185 481.927C193.703 614.481 213.409 737.79 216.57 829.986C218.151 876.092 215.591 914.361 208.832 942.097C205.452 955.966 201.033 967.15 195.596 975.355C190.164 983.553 183.752 988.726 176.377 990.702Z" stroke="#2B2C3B" stroke-width="2"/>
<path opacity="0.310345" d="M134.12 1004.04C126.602 1005.36 118.604 1003.39 110.216 998.252C101.821 993.114 93.0902 984.845 84.1657 973.704C66.3172 951.423 47.8245 917.822 29.7719 875.367C-6.32694 790.474 -40.5795 670.39 -64.4094 535.244C-88.2393 400.098 -97.1236 275.54 -92.2371 183.42C-89.7934 137.351 -83.9084 99.4515 -74.7569 72.4097C-70.181 58.8883 -64.8049 48.1321 -58.6734 40.4321C-52.5471 32.7386 -45.7084 28.1445 -38.19 26.8188C-30.6717 25.4931 -22.6741 27.4712 -14.286 32.6054C-5.89071 37.744 2.83998 46.0128 11.7645 57.1537C29.613 79.4346 48.1057 113.036 66.1583 155.49C102.257 240.384 136.51 360.468 160.34 495.614C184.169 630.76 193.054 755.317 188.167 847.438C185.724 893.506 179.839 931.406 170.687 958.448C166.111 971.969 160.735 982.726 154.604 990.426C148.477 998.119 141.639 1002.71 134.12 1004.04Z" stroke="#2B2C3B" stroke-width="2"/>
<path opacity="0.344828" d="M91.2065 1013.66C83.6013 1014.32 75.8065 1011.66 67.8978 1005.81C59.9823 999.959 52.0055 990.961 44.0859 979.085C28.2473 955.333 12.7536 920.247 -1.53024 876.381C-30.0927 788.664 -53.749 666.052 -65.7094 529.343C-77.6699 392.635 -75.6645 267.777 -62.7678 176.433C-56.3183 130.753 -47.1525 93.5101 -35.6789 67.3688C-29.9419 54.2977 -23.6488 44.051 -16.8696 36.9146C-10.0961 29.7844 -2.88293 25.8038 4.7223 25.1384C12.3275 24.473 20.1223 27.1406 28.0311 32.9863C35.9465 38.837 43.9233 47.8353 51.8429 59.7116C67.6816 83.4634 83.1753 118.549 97.4591 162.415C126.022 250.132 149.678 372.744 161.638 509.453C173.599 646.162 171.593 771.019 158.697 862.363C152.247 908.043 143.081 945.286 131.608 971.427C125.871 984.498 119.578 994.745 112.798 1001.88C106.025 1009.01 98.8118 1012.99 91.2065 1013.66Z" stroke="#2B2C3B" stroke-width="2"/>
<path opacity="0.37931" d="M47.9647 1019.52C40.3304 1019.52 32.7978 1016.18 25.4286 1009.67C18.0532 1003.15 10.891 993.489 4.03664 980.968C-9.67163 955.926 -22.0485 919.624 -32.4547 874.68C-53.2635 784.807 -66.1433 660.599 -66.1433 523.369C-66.1433 386.138 -53.2635 261.93 -32.4547 172.058C-22.0485 127.113 -9.67163 90.8113 4.03664 65.7695C10.891 53.2481 18.0532 43.5889 25.4286 37.0705C32.7978 30.5578 40.3304 27.2209 47.9647 27.2209C55.599 27.2209 63.1316 30.5578 70.5008 37.0705C77.8762 43.5889 85.0384 53.2481 91.8928 65.7695C105.601 90.8113 117.978 127.113 128.384 172.058C149.193 261.93 162.073 386.138 162.073 523.369C162.073 660.599 149.193 784.807 128.384 874.68C117.978 919.624 105.601 955.926 91.8928 980.968C85.0384 993.489 77.8762 1003.15 70.5008 1009.67C63.1316 1016.18 55.599 1019.52 47.9647 1019.52Z" stroke="#2B2C3B" stroke-width="2"/>
<path opacity="0.413793" d="M4.72244 1021.6C-2.88279 1020.93 -10.0959 1016.95 -16.8694 1009.82C-23.6487 1002.69 -29.9418 992.439 -35.6787 979.368C-47.1523 953.227 -56.3181 915.984 -62.7676 870.304C-75.6643 778.96 -77.6697 654.102 -65.7093 517.394C-53.7488 380.685 -30.0926 258.073 -1.5301 170.356C12.7537 126.49 28.2474 91.4043 44.086 67.6526C52.0056 55.7763 59.9824 46.778 67.8979 40.9273C75.8067 35.0816 83.6014 32.414 91.2067 33.0793C98.8119 33.7447 106.025 37.7253 112.799 44.8556C119.578 51.9919 125.871 62.2386 131.608 75.3097C143.081 101.451 152.247 138.694 158.697 184.374C171.593 275.718 173.599 400.576 161.638 537.284C149.678 673.993 126.022 796.605 97.4592 884.322C83.1754 928.188 67.6817 963.274 51.8431 987.025C43.9235 998.902 35.9467 1007.9 28.0312 1013.75C20.1225 1019.6 12.3277 1022.26 4.72244 1021.6Z" stroke="#2B2C3B" stroke-width="2"/>
<path opacity="0.448276" d="M-38.1904 1019.92C-45.7087 1018.59 -52.5475 1014 -58.6737 1006.31C-64.8052 998.605 -70.1813 987.849 -74.7572 974.328C-83.9088 947.286 -89.7938 909.386 -92.2375 863.318C-97.1239 771.197 -88.2396 646.64 -64.4098 511.494C-40.5799 376.348 -6.32731 256.264 29.7715 171.37C47.8242 128.916 66.3168 95.3142 84.1653 73.0332C93.0898 61.8924 101.821 53.6236 110.216 48.485C118.604 43.3508 126.602 41.3727 134.12 42.6984C141.638 44.0241 148.477 48.6182 154.603 56.3117C160.735 64.0117 166.111 74.7679 170.687 88.2893C179.838 115.331 185.723 153.231 188.167 199.299C193.053 291.42 184.169 415.977 160.339 551.123C136.509 686.269 102.257 806.353 66.1579 891.247C48.1053 933.701 29.6126 967.303 11.7642 989.584C2.83962 1000.72 -5.89107 1008.99 -14.2864 1014.13C-22.6745 1019.27 -30.6721 1021.24 -38.1904 1019.92Z" stroke="#2B2C3B" stroke-width="2"/>
<path opacity="0.482759" d="M-80.4478 1014.52C-87.822 1012.54 -94.2343 1007.37 -99.6668 999.171C-105.104 990.966 -109.522 979.782 -112.902 965.913C-119.662 938.177 -122.221 899.908 -120.641 853.802C-117.48 761.606 -97.7732 638.297 -62.2553 505.743C-26.7373 373.188 17.8509 256.546 61.2114 175.122C82.8955 134.402 104.246 102.54 123.969 81.8997C133.83 71.579 143.248 64.1026 152.06 59.7153C160.863 55.3317 169.003 54.0582 176.377 56.0341C183.751 58.01 190.164 63.1827 195.596 71.3808C201.033 79.586 205.451 90.7698 208.831 104.639C215.591 132.375 218.151 170.644 216.57 216.75C213.409 308.946 193.703 432.255 158.185 564.809C122.667 697.364 78.0783 814.006 34.7179 895.43C13.0338 936.15 -8.31703 968.012 -28.0395 988.652C-37.9011 998.973 -47.3192 1006.45 -56.1304 1010.84C-64.9341 1015.22 -73.0737 1016.49 -80.4478 1014.52Z" stroke="#2B2C3B" stroke-width="2"/>
<path opacity="0.517241" d="M-121.728 1005.47C-128.902 1002.86 -134.839 997.149 -139.536 988.509C-144.237 979.861 -147.664 968.335 -149.822 954.224C-154.139 926.004 -153.353 887.658 -147.76 841.865C-136.576 750.296 -106.197 629.173 -59.2617 500.219C-12.326 371.264 42.2586 258.952 92.5507 181.617C117.701 142.942 141.748 113.062 163.194 94.2191C173.918 84.7972 183.952 78.1701 193.112 74.5674C202.264 70.9678 210.483 70.4086 217.657 73.0196C224.831 75.6307 230.768 81.3426 235.466 89.983C240.167 98.6308 243.593 110.157 245.752 124.268C250.069 152.488 249.283 190.834 243.69 236.627C232.505 328.196 202.127 449.318 155.191 578.273C108.256 707.228 53.671 819.54 3.37896 896.875C-21.7715 935.55 -45.8181 965.43 -67.2644 984.273C-77.988 993.695 -88.0219 1000.32 -97.182 1003.92C-106.334 1007.52 -114.554 1008.08 -121.728 1005.47Z" stroke="#2B2C3B" stroke-width="2"/>
<path opacity="0.551724" d="M-161.716 992.877C-168.635 989.65 -174.052 983.443 -177.978 974.426C-181.908 965.401 -184.317 953.62 -185.237 939.375C-187.078 910.886 -182.953 872.755 -173.39 827.623C-154.268 737.377 -113.448 619.364 -55.4519 494.99C2.54431 370.617 66.7098 263.49 123.551 190.832C151.976 154.496 178.535 126.826 201.542 109.924C213.046 101.472 223.62 95.745 233.059 92.9544C242.49 90.1661 250.727 90.3254 257.646 93.5518C264.565 96.7782 269.982 102.986 273.908 112.003C277.838 121.027 280.247 132.808 281.167 147.053C283.008 175.542 278.883 213.674 269.32 258.805C250.198 349.051 209.378 467.065 151.382 591.438C93.3858 715.812 29.2203 822.939 -27.6206 895.597C-56.0461 931.932 -82.6053 959.603 -105.612 976.505C-117.116 984.956 -127.69 990.684 -137.129 993.474C-146.56 996.262 -154.797 996.103 -161.716 992.877Z" stroke="#2B2C3B" stroke-width="2"/>
<path opacity="0.586207" d="M-200.109 976.861C-206.721 973.043 -211.576 966.387 -214.701 957.063C-217.829 947.73 -219.202 935.783 -218.878 921.512C-218.228 892.972 -210.796 855.344 -197.336 811.219C-170.421 722.982 -119.471 608.975 -50.8557 490.13C17.7597 371.285 91.0178 270.158 153.975 202.73C185.459 169.01 214.329 143.76 238.722 128.928C250.918 121.511 261.951 116.727 271.597 114.77C281.235 112.814 289.427 113.69 296.039 117.508C302.65 121.325 307.505 127.981 310.631 137.306C313.759 146.638 315.132 158.585 314.807 172.856C314.158 201.397 306.726 239.024 293.266 283.15C266.35 371.386 215.401 485.393 146.785 604.238C78.1698 723.083 4.91175 824.211 -58.0454 891.638C-89.5296 925.358 -118.399 950.608 -142.792 965.441C-154.989 972.857 -166.021 977.641 -175.667 979.599C-185.306 981.554 -193.498 980.678 -200.109 976.861Z" stroke="#2B2C3B" stroke-width="2"/>
<path opacity="0.62069" d="M-236.614 957.573C-242.867 953.194 -247.124 946.14 -249.425 936.578C-251.727 927.008 -252.054 914.988 -250.487 900.799C-247.353 872.424 -236.669 835.588 -219.414 792.803C-184.911 707.248 -124.219 598.116 -45.5068 485.703C33.2055 373.29 114.999 278.932 183.593 217.249C217.896 186.401 248.857 163.763 274.449 151.113C287.246 144.788 298.653 140.983 308.434 139.874C318.206 138.766 326.29 140.353 332.544 144.732C338.797 149.111 343.054 156.165 345.355 165.726C347.657 175.296 347.984 187.317 346.417 201.505C343.283 229.881 332.599 266.717 315.344 309.502C280.841 395.057 220.149 504.189 141.437 616.602C62.7245 729.015 -19.0686 823.372 -87.6629 885.056C-121.966 915.903 -152.927 938.541 -178.519 951.192C-191.316 957.517 -202.723 961.321 -212.504 962.431C-222.276 963.539 -230.36 961.952 -236.614 957.573Z" stroke="#2B2C3B" stroke-width="2"/>
<path opacity="0.655172" d="M-270.953 935.194C-276.801 930.287 -280.426 922.889 -281.885 913.163C-283.345 903.429 -282.623 891.426 -279.825 877.428C-274.23 849.433 -260.376 813.669 -239.458 772.55C-197.63 690.328 -127.657 586.901 -39.447 481.776C48.7633 376.651 138.469 289.781 212.178 234.311C249.04 206.57 281.855 186.717 308.453 176.345C321.752 171.159 333.448 168.364 343.288 168.111C353.119 167.859 361.034 170.145 366.882 175.052C372.731 179.959 376.356 187.357 377.815 197.083C379.275 206.817 378.553 218.82 375.755 232.818C370.159 260.813 356.306 296.578 335.388 337.696C293.56 419.918 223.587 523.345 135.377 628.47C47.1664 733.595 -42.5392 820.465 -116.249 875.935C-153.11 903.676 -185.926 923.529 -212.523 933.901C-225.823 939.087 -237.518 941.882 -247.358 942.135C-257.189 942.387 -265.105 940.101 -270.953 935.194Z" stroke="#2B2C3B" stroke-width="2"/>
<path opacity="0.689655" d="M-302.865 909.921C-308.263 904.523 -311.23 896.837 -311.835 887.021C-312.441 877.196 -310.676 865.302 -306.669 851.601C-298.654 824.201 -281.737 789.779 -257.315 750.641C-208.479 672.377 -129.759 575.442 -32.7218 478.405C64.3151 381.368 161.251 302.647 239.514 253.812C278.653 229.39 313.074 212.472 340.474 204.458C354.175 200.451 366.07 198.685 375.894 199.291C385.71 199.897 393.396 202.864 398.794 208.262C404.192 213.66 407.159 221.346 407.765 231.162C408.371 240.987 406.605 252.881 402.598 266.582C394.584 293.982 377.666 328.404 353.244 367.542C304.409 445.806 225.688 542.741 128.651 639.778C31.6146 736.815 -65.321 815.536 -143.584 864.371C-182.723 888.793 -217.144 905.711 -244.545 913.725C-258.246 917.732 -270.14 919.498 -279.965 918.892C-289.78 918.286 -297.466 915.319 -302.865 909.921Z" stroke="#2B2C3B" stroke-width="2"/>
<path opacity="0.724138" d="M-332.106 881.978C-337.014 876.13 -339.299 868.215 -339.047 858.384C-338.795 848.544 -335.999 836.848 -330.813 823.549C-320.441 796.951 -300.588 764.135 -272.848 727.274C-217.377 653.565 -130.507 563.859 -25.3825 475.649C79.7424 387.439 183.17 317.466 265.392 275.638C306.51 254.72 342.275 240.866 370.27 235.271C384.267 232.473 396.271 231.751 406.005 233.211C415.731 234.669 423.129 238.295 428.036 244.143C432.943 249.991 435.229 257.907 434.977 267.738C434.724 277.578 431.928 289.273 426.742 302.572C416.371 329.17 396.517 361.986 368.777 398.847C313.307 472.557 226.437 562.262 121.312 650.473C16.1871 738.683 -87.2405 808.655 -169.462 850.484C-210.581 871.402 -246.345 885.255 -274.34 890.851C-288.338 893.648 -300.341 894.371 -310.075 892.911C-319.801 891.452 -327.199 887.827 -332.106 881.978Z" stroke="#2B2C3B" stroke-width="2"/>
<path opacity="0.758621" d="M-358.456 851.609C-362.835 845.356 -364.422 837.271 -363.314 827.499C-362.204 817.719 -358.4 806.312 -352.075 793.515C-339.424 767.922 -316.786 736.962 -285.939 702.659C-224.255 634.064 -129.898 552.271 -17.485 473.559C94.9279 394.846 204.06 334.154 289.615 299.651C332.4 282.397 369.236 271.713 397.612 268.579C411.8 267.012 423.821 267.338 433.391 269.641C442.952 271.942 450.006 276.198 454.385 282.452C458.764 288.706 460.351 296.79 459.243 306.562C458.134 316.342 454.33 327.75 448.004 340.546C435.354 366.139 412.716 397.099 381.869 431.403C320.185 499.997 225.827 581.79 113.414 660.502C1.00153 739.215 -108.131 799.907 -193.686 834.41C-236.471 851.665 -273.307 862.348 -301.682 865.483C-315.871 867.05 -327.891 866.723 -337.461 864.42C-347.023 862.119 -354.077 857.863 -358.456 851.609Z" stroke="#2B2C3B" stroke-width="2"/>
<path opacity="0.793103" d="M-381.711 819.073C-385.529 812.462 -386.405 804.27 -384.45 794.632C-382.492 784.985 -377.708 773.953 -370.292 761.756C-355.459 737.364 -330.209 708.494 -296.489 677.01C-229.062 614.053 -127.934 540.795 -9.08903 472.179C109.756 403.564 223.763 352.614 311.999 325.699C356.125 312.239 393.752 304.806 422.293 304.157C436.564 303.833 448.511 305.206 457.843 308.334C467.168 311.459 473.824 316.314 477.641 322.926C481.459 329.537 482.335 337.729 480.38 347.367C478.422 357.014 473.638 368.046 466.222 380.243C451.389 404.635 426.139 433.505 392.419 464.989C324.991 527.947 223.864 601.205 105.019 669.82C-13.8263 738.436 -127.833 789.385 -216.069 816.3C-260.195 829.76 -297.822 837.193 -326.363 837.842C-340.634 838.167 -352.581 836.794 -361.914 833.666C-371.238 830.54 -377.894 825.685 -381.711 819.073Z" stroke="#2B2C3B" stroke-width="2"/>
<path opacity="0.827586" d="M-401.698 784.65C-404.924 777.731 -405.084 769.494 -402.295 760.063C-399.505 750.624 -393.777 740.051 -385.326 728.547C-368.424 705.54 -340.753 678.98 -304.418 650.555C-231.76 593.714 -124.633 529.549 -0.259557 471.552C124.114 413.556 242.127 372.737 332.374 353.614C377.505 344.051 415.637 339.926 444.125 341.767C458.37 342.688 470.152 345.097 479.176 349.026C488.193 352.953 494.401 358.369 497.627 365.288C500.853 372.207 501.013 380.444 498.225 389.875C495.434 399.315 489.707 409.888 481.255 421.392C464.353 444.399 436.683 470.958 400.347 499.384C327.689 556.225 220.562 620.39 96.1887 678.386C-28.1846 736.383 -146.198 777.202 -236.445 796.325C-281.576 805.888 -319.707 810.012 -348.196 808.171C-362.441 807.251 -374.222 804.842 -383.247 800.912C-392.264 796.986 -398.472 791.569 -401.698 784.65Z" stroke="#2B2C3B" stroke-width="2"/>
<path opacity="0.862069" d="M-418.261 748.631C-420.872 741.457 -420.313 733.237 -416.713 724.085C-413.111 714.925 -406.484 704.891 -397.062 694.167C-378.219 672.721 -348.339 648.675 -309.664 623.524C-232.329 573.232 -120.017 518.647 8.93797 471.712C137.893 424.776 259.015 394.398 350.584 383.213C396.377 377.62 434.723 376.834 462.943 381.151C477.054 383.31 488.58 386.736 497.228 391.437C505.869 396.135 511.58 402.072 514.192 409.246C516.803 416.42 516.243 424.639 512.644 433.791C509.041 442.951 502.414 452.985 492.992 463.709C474.149 485.155 444.269 509.202 405.595 534.352C328.259 584.644 215.947 639.229 86.9925 686.165C-41.9623 733.1 -163.085 763.479 -254.654 774.663C-300.447 780.256 -338.793 781.042 -367.013 776.725C-381.124 774.567 -392.65 771.14 -401.298 766.439C-409.938 761.742 -415.65 755.805 -418.261 748.631Z" stroke="#2B2C3B" stroke-width="2"/>
<path opacity="0.896552" d="M-431.277 711.32C-433.253 703.945 -431.979 695.806 -427.596 687.002C-423.208 678.191 -415.732 668.773 -405.411 658.911C-384.771 639.189 -352.909 617.838 -312.19 596.154C-230.765 552.793 -114.123 508.205 18.4315 472.687C150.986 437.169 274.295 417.463 366.491 414.302C412.597 412.721 450.866 415.281 478.602 422.04C492.471 425.42 503.655 429.839 511.86 435.276C520.058 440.708 525.231 447.12 527.207 454.495C529.183 461.869 527.909 470.008 523.526 478.812C519.138 487.623 511.662 497.041 501.341 506.903C480.701 526.625 448.839 547.976 408.119 569.66C326.695 613.021 210.053 657.609 77.4982 693.127C-55.0566 728.645 -178.366 748.351 -270.561 751.512C-316.667 753.093 -354.936 750.534 -382.673 743.774C-396.541 740.394 -407.725 735.976 -415.93 730.538C-424.128 725.106 -429.301 718.694 -431.277 711.32Z" stroke="#2B2C3B" stroke-width="2"/>
<path opacity="0.931035" d="M-440.645 673.032C-441.971 665.514 -439.993 657.516 -434.858 649.128C-429.72 640.733 -421.451 632.002 -410.31 623.077C-388.029 605.229 -354.428 586.736 -311.973 568.684C-227.08 532.585 -106.995 498.332 28.1505 474.502C163.296 450.672 287.854 441.788 379.974 446.675C426.043 449.118 463.943 455.003 490.984 464.155C504.506 468.731 515.262 474.107 522.962 480.238C530.655 486.365 535.25 493.203 536.575 500.722C537.901 508.24 535.923 516.237 530.789 524.626C525.65 533.021 517.381 541.752 506.24 550.676C483.959 568.525 450.358 587.017 407.904 605.07C323.01 641.169 202.926 675.421 67.7798 699.251C-67.3662 723.081 -191.923 731.965 -284.044 727.079C-330.112 724.635 -368.012 718.75 -395.054 709.599C-408.575 705.023 -419.332 699.647 -427.032 693.515C-434.725 687.389 -439.319 680.55 -440.645 673.032Z" stroke="#2B2C3B" stroke-width="2"/>
<path opacity="0.965517" d="M-446.294 634.087C-446.96 626.482 -444.292 618.687 -438.447 610.778C-432.596 602.863 -423.598 594.886 -411.721 586.966C-387.969 571.128 -352.884 555.634 -309.018 541.35C-221.301 512.788 -98.6886 489.131 38.02 477.171C174.729 465.211 299.586 467.216 390.93 480.113C436.61 486.562 473.853 495.728 499.994 507.201C513.066 512.938 523.312 519.232 530.449 526.011C537.579 532.784 541.56 539.997 542.225 547.603C542.89 555.208 540.223 563.003 534.377 570.911C528.526 578.827 519.528 586.804 507.652 594.723C483.9 610.562 448.815 626.056 404.948 640.339C317.231 668.902 194.619 692.558 57.9104 704.519C-78.7982 716.479 -203.656 714.474 -295 701.577C-340.68 695.127 -377.923 685.962 -404.064 674.488C-417.135 668.751 -427.382 662.458 -434.518 655.679C-441.649 648.905 -445.629 641.692 -446.294 634.087Z" stroke="#2B2C3B" stroke-width="2"/>
<path d="M-448.183 594.815C-448.183 587.181 -444.846 579.648 -438.333 572.279C-431.815 564.903 -422.156 557.741 -409.635 550.887C-384.593 537.178 -348.291 524.802 -303.346 514.395C-213.474 493.587 -89.2662 480.707 47.9646 480.707C185.195 480.707 309.403 493.587 399.276 514.395C444.22 524.802 480.522 537.178 505.564 550.887C518.085 557.741 527.744 564.903 534.263 572.279C540.775 579.648 544.112 587.181 544.112 594.815C544.112 602.449 540.775 609.982 534.263 617.351C527.744 624.726 518.085 631.888 505.564 638.743C480.522 652.451 444.22 664.828 399.276 675.234C309.403 696.043 185.195 708.923 47.9646 708.923C-89.2662 708.923 -213.474 696.043 -303.346 675.234C-348.291 664.828 -384.593 652.451 -409.635 638.743C-422.156 631.888 -431.815 624.726 -438.333 617.351C-444.846 609.982 -448.183 602.449 -448.183 594.815Z" stroke="#2B2C3B" stroke-width="2"/>
</g>
</svg>
