<svg width="589" height="439" viewBox="0 0 589 439" fill="none" xmlns="http://www.w3.org/2000/svg">
<path d="M588.725 385.482H0.819336V385.776H588.725V385.482Z" fill="#EBEBEB"/>
<path d="M529.817 404.401H490.874V404.695H529.817V404.401Z" fill="#EBEBEB"/>
<path d="M390.272 407.599H380.054V407.893H390.272V407.599Z" fill="#EBEBEB"/>
<path d="M489.698 393.489H467.135V393.783H489.698V393.489Z" fill="#EBEBEB"/>
<path d="M113.286 395.465H62.5024V395.759H113.286V395.465Z" fill="#EBEBEB"/>
<path d="M131.205 395.465H123.762V395.759H131.205V395.465Z" fill="#EBEBEB"/>
<path d="M265.553 400.427H155.403V400.72H265.553V400.427Z" fill="#EBEBEB"/>
<path d="M279.487 333.041H52.4492C50.6706 333.038 48.9659 332.329 47.7094 331.07C46.4528 329.811 45.7471 328.105 45.7471 326.327V7.17633C45.7626 5.40794 46.4751 3.71707 47.73 2.47099C48.9849 1.22491 50.6807 0.52427 52.4492 0.52124H279.487C281.267 0.52124 282.975 1.22859 284.234 2.48769C285.493 3.74679 286.201 5.45449 286.201 7.23512V326.327C286.201 328.108 285.493 329.815 284.234 331.074C282.975 332.333 281.267 333.041 279.487 333.041ZM52.4492 0.756403C50.7486 0.759518 49.1186 1.43727 47.9172 2.64091C46.7158 3.84454 46.041 5.4757 46.041 7.17633V326.327C46.041 328.028 46.7158 329.659 47.9172 330.862C49.1186 332.066 50.7486 332.744 52.4492 332.747H279.487C281.188 332.744 282.82 332.066 284.023 330.863C285.226 329.66 285.904 328.029 285.907 326.327V7.17633C285.904 5.47462 285.226 3.84349 284.023 2.64019C282.82 1.43689 281.188 0.759512 279.487 0.756403H52.4492Z" fill="#EBEBEB"/>
<path d="M533.826 333.041H306.777C304.997 333.038 303.292 332.329 302.033 331.071C300.775 329.812 300.066 328.107 300.063 326.327V7.17633C300.082 5.40687 300.797 3.71601 302.054 2.47026C303.31 1.2245 305.008 0.524237 306.777 0.52124H533.826C535.593 0.52736 537.286 1.22937 538.538 2.47512C539.79 3.72087 540.501 5.40997 540.517 7.17633V326.327C540.517 328.103 539.813 329.808 538.559 331.066C537.305 332.324 535.603 333.035 533.826 333.041ZM306.777 0.756403C305.075 0.759512 303.444 1.43689 302.241 2.64019C301.038 3.84349 300.36 5.47462 300.357 7.17633V326.327C300.36 328.029 301.038 329.66 302.241 330.863C303.444 332.066 305.075 332.744 306.777 332.747H533.826C535.528 332.744 537.159 332.066 538.363 330.863C539.566 329.66 540.243 328.029 540.246 326.327V7.17633C540.243 5.47462 539.566 3.84349 538.363 2.64019C537.159 1.43689 535.528 0.759512 533.826 0.756403H306.777Z" fill="#EBEBEB"/>
<path d="M254.054 24.4373L255.042 26.4479C255.099 26.5656 255.186 26.6669 255.292 26.7429C255.399 26.8189 255.523 26.867 255.653 26.883L257.875 27.2122C258.022 27.2349 258.16 27.2981 258.273 27.3948C258.386 27.4914 258.47 27.6177 258.515 27.7594C258.561 27.9012 258.565 28.0527 258.529 28.1969C258.493 28.3412 258.417 28.4725 258.31 28.5761L256.711 30.1517C256.617 30.2409 256.546 30.3519 256.505 30.475C256.464 30.598 256.454 30.7293 256.476 30.8572L256.852 33.0677C256.881 33.2172 256.866 33.3716 256.809 33.5129C256.753 33.6542 256.657 33.7764 256.534 33.8653C256.411 33.9542 256.264 34.006 256.112 34.0147C255.961 34.0234 255.809 33.9886 255.677 33.9143L253.69 32.8679C253.575 32.81 253.448 32.7798 253.319 32.7798C253.191 32.7798 253.064 32.81 252.949 32.8679L250.95 33.9143C250.817 33.9886 250.666 34.0234 250.514 34.0147C250.362 34.006 250.216 33.9542 250.092 33.8653C249.969 33.7764 249.874 33.6542 249.817 33.5129C249.761 33.3716 249.746 33.2172 249.774 33.0677L250.162 30.8572C250.181 30.7294 250.17 30.599 250.129 30.4764C250.088 30.3538 250.019 30.2426 249.927 30.1517L248.316 28.5761C248.209 28.4718 248.134 28.3395 248.098 28.1944C248.062 28.0492 248.068 27.897 248.115 27.755C248.161 27.613 248.247 27.4869 248.361 27.3909C248.476 27.295 248.615 27.2331 248.763 27.2122L250.985 26.883C251.115 26.865 251.238 26.8161 251.344 26.7404C251.451 26.6646 251.537 26.5643 251.597 26.4479L252.584 24.4373C252.65 24.2975 252.753 24.1793 252.884 24.0965C253.014 24.0137 253.165 23.9697 253.319 23.9697C253.473 23.9697 253.624 24.0137 253.755 24.0965C253.885 24.1793 253.989 24.2975 254.054 24.4373Z" fill="#DADADA"/>
<path d="M107.654 190.05L108.653 192.073C108.711 192.188 108.795 192.288 108.9 192.364C109.004 192.44 109.125 192.489 109.253 192.508L111.475 192.837C111.623 192.858 111.762 192.92 111.877 193.016C111.991 193.112 112.077 193.238 112.123 193.38C112.17 193.522 112.176 193.674 112.14 193.819C112.105 193.964 112.029 194.097 111.922 194.201L110.311 195.765C110.219 195.857 110.15 195.971 110.111 196.096C110.073 196.221 110.064 196.353 110.088 196.482L110.464 198.693C110.492 198.842 110.477 198.996 110.421 199.138C110.365 199.279 110.269 199.401 110.146 199.49C110.022 199.579 109.876 199.631 109.724 199.64C109.572 199.648 109.421 199.613 109.288 199.539L107.301 198.493C107.184 198.435 107.055 198.404 106.925 198.404C106.794 198.404 106.665 198.435 106.549 198.493L104.561 199.539C104.429 199.613 104.277 199.648 104.126 199.64C103.974 199.631 103.827 199.579 103.704 199.49C103.581 199.401 103.485 199.279 103.429 199.138C103.372 198.996 103.357 198.842 103.386 198.693L103.762 196.482C103.785 196.353 103.777 196.221 103.738 196.096C103.699 195.971 103.631 195.857 103.538 195.765L101.939 194.201C101.832 194.097 101.757 193.964 101.721 193.819C101.686 193.674 101.691 193.522 101.738 193.38C101.784 193.238 101.87 193.112 101.984 193.016C102.099 192.92 102.238 192.858 102.386 192.837L104.608 192.508C104.736 192.489 104.857 192.44 104.962 192.364C105.066 192.288 105.151 192.188 105.208 192.073L106.208 190.05C106.272 189.913 106.375 189.797 106.503 189.716C106.631 189.635 106.779 189.592 106.931 189.592C107.082 189.592 107.231 189.635 107.359 189.716C107.487 189.797 107.589 189.913 107.654 190.05Z" fill="#F0F0F0"/>
<path d="M89.1932 78.936L90.1809 80.9466C90.2377 81.0637 90.3218 81.1655 90.4262 81.2432C90.5306 81.321 90.6521 81.3725 90.7806 81.3934L93.0029 81.7109C93.1508 81.7342 93.2894 81.798 93.4033 81.8952C93.5172 81.9924 93.6019 82.1193 93.6482 82.2617C93.6945 82.4041 93.7004 82.5566 93.6654 82.7022C93.6303 82.8478 93.5557 82.9808 93.4497 83.0866L91.8388 84.6504C91.7477 84.7418 91.6791 84.8531 91.6383 84.9755C91.5975 85.0979 91.5856 85.2281 91.6036 85.3559L91.9917 87.5782C92.0199 87.7276 92.005 87.8821 91.9486 88.0234C91.8922 88.1646 91.7967 88.2869 91.6732 88.3758C91.5498 88.4647 91.4035 88.5165 91.2517 88.5251C91.0998 88.5338 90.9486 88.499 90.8158 88.4248L88.8287 87.3783C88.7136 87.3145 88.5841 87.281 88.4525 87.281C88.3208 87.281 88.1913 87.3145 88.0762 87.3783L86.0891 88.4248C85.9563 88.499 85.8051 88.5338 85.6532 88.5251C85.5014 88.5165 85.3551 88.4647 85.2317 88.3758C85.1082 88.2869 85.0127 88.1646 84.9563 88.0234C84.8999 87.8821 84.885 87.7276 84.9133 87.5782L85.2895 85.3559C85.3136 85.228 85.3047 85.0961 85.2635 84.9726C85.2224 84.8492 85.1504 84.7383 85.0544 84.6504L83.4553 83.0866C83.345 82.9835 83.2663 82.8513 83.228 82.7053C83.1898 82.5593 83.1936 82.4055 83.2391 82.2616C83.2846 82.1177 83.3699 81.9896 83.4852 81.8922C83.6004 81.7947 83.7409 81.7319 83.8903 81.7109L86.1126 81.3934C86.2425 81.3724 86.3656 81.321 86.4719 81.2433C86.5781 81.1657 86.6645 81.064 86.724 80.9466L87.7117 78.936C87.7756 78.7929 87.8796 78.6714 88.011 78.5862C88.1425 78.5009 88.2958 78.4556 88.4525 78.4556C88.6091 78.4556 88.7625 78.5009 88.8939 78.5862C89.0254 78.6714 89.1293 78.7929 89.1932 78.936Z" fill="#F0F0F0"/>
<path d="M178.285 129.472L178.873 130.648C178.909 130.717 178.961 130.776 179.024 130.821C179.087 130.866 179.161 130.896 179.237 130.907L180.566 131.095C180.654 131.109 180.737 131.148 180.805 131.206C180.873 131.265 180.923 131.341 180.95 131.427C180.977 131.512 180.979 131.603 180.957 131.69C180.935 131.777 180.889 131.856 180.825 131.918L179.872 132.859C179.816 132.912 179.773 132.979 179.748 133.053C179.724 133.127 179.718 133.205 179.731 133.282L179.955 134.599C179.973 134.688 179.966 134.78 179.934 134.865C179.901 134.95 179.845 135.023 179.771 135.077C179.698 135.13 179.611 135.161 179.52 135.166C179.43 135.171 179.34 135.15 179.261 135.105L178.085 134.481C178.016 134.446 177.939 134.428 177.862 134.428C177.784 134.428 177.707 134.446 177.638 134.481L176.462 135.105C176.384 135.15 176.294 135.171 176.203 135.166C176.112 135.161 176.025 135.13 175.952 135.077C175.878 135.023 175.822 134.95 175.79 134.865C175.757 134.78 175.75 134.688 175.769 134.599L175.992 133.282C176.005 133.205 176 133.127 175.975 133.053C175.95 132.979 175.908 132.912 175.851 132.859L174.887 131.918C174.822 131.855 174.776 131.775 174.755 131.688C174.733 131.6 174.737 131.508 174.765 131.422C174.793 131.336 174.845 131.26 174.914 131.202C174.984 131.145 175.068 131.107 175.157 131.095L176.486 130.907C176.563 130.896 176.636 130.866 176.699 130.821C176.762 130.776 176.814 130.717 176.85 130.648L177.438 129.472C177.482 129.399 177.544 129.339 177.618 129.297C177.693 129.255 177.776 129.233 177.862 129.233C177.947 129.233 178.031 129.255 178.105 129.297C178.179 129.339 178.241 129.399 178.285 129.472Z" fill="#F0F0F0"/>
<path d="M142.246 283.539L142.834 284.715C142.87 284.785 142.921 284.846 142.984 284.893C143.048 284.94 143.121 284.972 143.199 284.985L144.527 285.173C144.617 285.186 144.701 285.223 144.77 285.281C144.84 285.339 144.891 285.415 144.919 285.501C144.948 285.586 144.951 285.678 144.93 285.766C144.908 285.854 144.862 285.934 144.798 285.997L143.834 286.925C143.777 286.981 143.734 287.05 143.71 287.126C143.685 287.201 143.679 287.282 143.692 287.361L143.928 288.677C143.943 288.767 143.933 288.859 143.899 288.942C143.864 289.026 143.807 289.099 143.733 289.151C143.66 289.204 143.573 289.235 143.482 289.241C143.392 289.246 143.302 289.226 143.222 289.183L142.046 288.56C141.977 288.525 141.901 288.506 141.823 288.506C141.745 288.506 141.669 288.525 141.599 288.56L140.424 289.183C140.344 289.223 140.256 289.24 140.167 289.233C140.079 289.226 139.994 289.195 139.922 289.142C139.85 289.09 139.794 289.019 139.761 288.937C139.727 288.855 139.716 288.765 139.73 288.677L139.953 287.361C139.968 287.283 139.964 287.203 139.942 287.127C139.919 287.052 139.879 286.982 139.824 286.925L138.86 285.997C138.795 285.934 138.749 285.855 138.727 285.769C138.705 285.682 138.708 285.59 138.735 285.505C138.761 285.42 138.812 285.343 138.879 285.285C138.947 285.226 139.03 285.188 139.119 285.173L140.447 284.985C140.525 284.974 140.6 284.943 140.663 284.896C140.727 284.849 140.778 284.786 140.812 284.715L141.411 283.539C141.454 283.466 141.515 283.405 141.588 283.363C141.661 283.32 141.744 283.298 141.829 283.298C141.913 283.298 141.996 283.32 142.07 283.363C142.143 283.405 142.204 283.466 142.246 283.539Z" fill="#F5F5F5"/>
<path d="M511.592 26.2714L512.18 27.4472C512.214 27.5179 512.265 27.5787 512.328 27.624C512.392 27.6693 512.467 27.6975 512.544 27.7059L513.873 27.9058C513.962 27.9181 514.047 27.9553 514.116 28.0131C514.185 28.071 514.237 28.1471 514.265 28.2329C514.293 28.3187 514.297 28.4106 514.275 28.4983C514.254 28.586 514.208 28.6659 514.143 28.7289L513.179 29.6578C513.123 29.7117 513.081 29.7784 513.057 29.8521C513.032 29.9258 513.026 30.0043 513.038 30.081L513.273 31.4097C513.289 31.499 513.279 31.5908 513.244 31.6747C513.21 31.7585 513.153 31.831 513.079 31.8837C513.006 31.9365 512.919 31.9675 512.828 31.973C512.738 31.9786 512.647 31.9586 512.568 31.9153L511.392 31.2921C511.323 31.257 511.246 31.2387 511.169 31.2387C511.091 31.2387 511.015 31.257 510.945 31.2921L509.769 31.9153C509.69 31.9554 509.601 31.9728 509.513 31.9656C509.424 31.9585 509.34 31.927 509.268 31.8747C509.196 31.8224 509.14 31.7513 509.106 31.6693C509.072 31.5872 509.062 31.4974 509.076 31.4097L509.299 30.081C509.313 30.0053 509.308 29.9273 509.286 29.8537C509.263 29.78 509.224 29.7129 509.17 29.6578L508.182 28.7406C508.118 28.6784 508.072 28.5995 508.05 28.5127C508.027 28.4258 508.03 28.3346 508.057 28.2491C508.084 28.1636 508.134 28.0873 508.202 28.0287C508.27 27.9702 508.352 27.9317 508.441 27.9176L509.769 27.7177C509.848 27.7103 509.922 27.6826 509.986 27.6372C510.05 27.5918 510.101 27.5303 510.134 27.459L510.734 26.2832C510.77 26.1999 510.829 26.1287 510.904 26.0784C510.98 26.028 511.068 26.0006 511.159 25.9993C511.25 25.9981 511.339 26.0231 511.416 26.0714C511.493 26.1197 511.554 26.1891 511.592 26.2714Z" fill="#F5F5F5"/>
<path d="M501.374 248.183L502.397 250.264C502.455 250.384 502.543 250.489 502.651 250.567C502.76 250.645 502.887 250.694 503.02 250.711L505.372 251.052C505.525 251.072 505.67 251.136 505.789 251.235C505.908 251.334 505.997 251.465 506.045 251.613C506.093 251.76 506.098 251.918 506.06 252.069C506.022 252.219 505.942 252.355 505.83 252.462L504.067 254.085C503.972 254.181 503.901 254.299 503.86 254.427C503.819 254.556 503.81 254.693 503.831 254.826L504.231 257.178C504.251 257.326 504.231 257.476 504.173 257.614C504.115 257.752 504.021 257.871 503.9 257.96C503.78 258.049 503.639 258.104 503.49 258.119C503.341 258.135 503.191 258.11 503.055 258.048L500.998 256.966C500.878 256.902 500.745 256.869 500.61 256.869C500.474 256.869 500.341 256.902 500.222 256.966L498.188 258.024C498.052 258.091 497.901 258.119 497.75 258.105C497.6 258.092 497.456 258.037 497.335 257.947C497.213 257.857 497.119 257.736 497.062 257.596C497.005 257.456 496.988 257.303 497.012 257.154L497.4 254.802C497.425 254.669 497.416 254.532 497.375 254.402C497.334 254.273 497.262 254.156 497.165 254.062L495.495 252.439C495.387 252.329 495.311 252.192 495.277 252.042C495.242 251.892 495.249 251.735 495.298 251.589C495.347 251.443 495.435 251.314 495.552 251.215C495.67 251.116 495.813 251.051 495.965 251.028L498.258 250.687C498.391 250.671 498.518 250.621 498.627 250.543C498.736 250.465 498.823 250.361 498.881 250.24L499.916 248.159C499.99 248.03 500.098 247.924 500.227 247.851C500.357 247.778 500.503 247.74 500.652 247.743C500.801 247.745 500.946 247.787 501.073 247.864C501.2 247.942 501.304 248.052 501.374 248.183Z" fill="#F0F0F0"/>
<path d="M375.421 53.3035C375.421 53.6128 375.33 53.9152 375.158 54.1723C374.986 54.4295 374.742 54.6299 374.456 54.7483C374.17 54.8667 373.856 54.8976 373.552 54.8373C373.249 54.777 372.97 54.628 372.752 54.4093C372.533 54.1906 372.384 53.912 372.324 53.6086C372.263 53.3052 372.294 52.9908 372.413 52.7051C372.531 52.4193 372.732 52.1751 372.989 52.0032C373.246 51.8314 373.548 51.7397 373.858 51.7397C374.272 51.7397 374.67 51.9044 374.963 52.1977C375.257 52.491 375.421 52.8888 375.421 53.3035Z" fill="#F0F0F0"/>
<path d="M420.302 356.404C420.302 356.713 420.21 357.016 420.038 357.273C419.867 357.53 419.622 357.731 419.337 357.849C419.051 357.967 418.736 357.998 418.433 357.938C418.13 357.878 417.851 357.729 417.632 357.51C417.414 357.291 417.265 357.013 417.204 356.709C417.144 356.406 417.175 356.091 417.293 355.806C417.412 355.52 417.612 355.276 417.869 355.104C418.127 354.932 418.429 354.84 418.738 354.84C418.944 354.839 419.148 354.878 419.338 354.956C419.529 355.034 419.702 355.149 419.847 355.295C419.993 355.44 420.108 355.613 420.186 355.804C420.264 355.994 420.304 356.198 420.302 356.404Z" fill="#F5F5F5"/>
<path d="M156.908 33.8085C156.908 35.1317 156.516 36.4252 155.781 37.5254C155.046 38.6257 154.001 39.4832 152.778 39.9896C151.556 40.4959 150.211 40.6284 148.913 40.3703C147.615 40.1121 146.423 39.4749 145.487 38.5393C144.551 37.6036 143.914 36.4115 143.656 35.1137C143.398 33.8159 143.53 32.4707 144.037 31.2482C144.543 30.0257 145.401 28.9808 146.501 28.2456C147.601 27.5105 148.895 27.1181 150.218 27.1181C151.992 27.1181 153.694 27.823 154.949 29.0777C156.203 30.3323 156.908 32.0341 156.908 33.8085Z" fill="#F0F0F0"/>
<path d="M220.214 78.019C224.251 78.7284 228.344 79.0786 232.443 79.0655C230.838 80.9408 228.775 82.3685 226.455 83.2093C224.134 84.0502 221.636 84.2755 219.202 83.8635C216.769 83.4514 214.484 82.4159 212.569 80.8579C210.655 79.3 209.177 77.2727 208.28 74.9736C212.162 76.3342 216.155 77.3532 220.214 78.019Z" fill="#F5F5F5"/>
<path d="M222.295 65.673C217.641 64.8394 212.911 64.5083 208.186 64.6853C209.363 61.5914 211.578 59.0021 214.452 57.3592C217.326 55.7163 220.681 55.1216 223.945 55.6767C227.209 56.2317 230.179 57.902 232.348 60.4027C234.517 62.9033 235.752 66.0792 235.841 69.3885C231.471 67.6701 226.93 66.4245 222.295 65.673Z" fill="#F5F5F5"/>
<path d="M243.781 73.4975C244.235 70.8082 234.674 66.9504 222.425 64.8808C210.176 62.8113 199.877 63.3136 199.423 66.0029C198.969 68.6922 208.53 72.55 220.779 74.6196C233.028 76.6892 243.327 76.1868 243.781 73.4975Z" fill="#F5F5F5"/>
<path d="M510.698 174.306C505.225 185.265 497.646 195.038 488.395 203.067C479.144 211.096 468.401 217.224 456.781 221.1C445.161 224.976 432.891 226.525 420.672 225.658C408.453 224.791 396.525 221.526 385.569 216.048C383.664 215.107 381.818 214.107 380.054 213.049C396.505 206.948 411.346 197.17 423.444 184.462C435.543 171.754 444.579 156.451 449.864 139.719C455.149 122.988 456.544 105.271 453.941 87.9187C451.339 70.5666 444.808 54.038 434.847 39.5934C450.053 40.842 464.721 45.7998 477.567 54.0325C490.412 62.2653 501.043 73.5219 508.529 86.8167C516.015 100.111 520.127 115.039 520.505 130.291C520.883 145.544 517.516 160.657 510.698 174.306Z" fill="#DADADA"/>
<path d="M468.04 64.4267C470.549 66.28 472.618 68.6651 474.098 71.4113C475.577 74.1575 476.432 77.1969 476.6 80.3119C473.344 75.8122 469.409 71.8455 464.936 68.5538C460.481 65.2468 455.549 62.6379 450.309 60.8169C453.347 60.0705 456.513 60.0072 459.579 60.6313C462.645 61.2555 465.535 62.5517 468.04 64.4267Z" fill="#F0F0F0"/>
<path d="M444.488 205.806C441.883 207.525 438.929 208.646 435.839 209.089C432.749 209.532 429.6 209.287 426.616 208.37C431.946 206.858 437.007 204.525 441.619 201.456C446.262 198.416 450.413 194.685 453.93 190.391C453.592 193.499 452.57 196.492 450.938 199.158C449.305 201.823 447.103 204.093 444.488 205.806Z" fill="#F0F0F0"/>
<path d="M476.623 117.032C477.96 119.853 478.653 122.936 478.653 126.057C478.653 129.178 477.96 132.26 476.623 135.081C475.893 129.588 474.306 124.244 471.92 119.243C469.572 114.22 466.471 109.585 462.725 105.498C465.749 106.276 468.564 107.714 470.967 109.708C473.369 111.702 475.301 114.204 476.623 117.032Z" fill="#F0F0F0"/>
<path d="M491.78 181.055C489.823 183.489 487.353 185.459 484.546 186.825C481.738 188.191 478.664 188.919 475.542 188.957C480.157 185.892 484.263 182.123 487.711 177.787C491.203 173.476 494.018 168.659 496.06 163.5C496.686 166.561 496.627 169.722 495.887 172.758C495.147 175.793 493.745 178.626 491.78 181.055Z" fill="#F0F0F0"/>
<path d="M294.772 438.582C420.681 438.582 522.75 432.622 522.75 425.271C522.75 417.92 420.681 411.961 294.772 411.961C168.863 411.961 66.7939 417.92 66.7939 425.271C66.7939 432.622 168.863 438.582 294.772 438.582Z" fill="#F5F5F5"/>
<path d="M299.887 92.0345L299.064 91.3878C302.768 86.6845 306.66 82.2635 310.634 78.1246L311.375 78.8536C307.424 82.9572 303.556 87.4018 299.887 92.0345Z" fill="#407BFF"/>
<path d="M295.495 95.8966L291.703 100.678L292.514 101.321L296.306 96.5396L295.495 95.8966Z" fill="#407BFF"/>
<path d="M377.079 146.58C402.63 105.509 406.11 65.038 387.509 51.9394C368.907 38.8409 331.975 55.749 301.91 93.6454L215.993 202.02L304.085 264.056L377.079 146.58Z" fill="#407BFF"/>
<path opacity="0.1" d="M367.026 139.502L292.244 255.755L283.097 238.27L357.373 132.212C378.373 102.217 390.143 74.8091 390.19 59.547C390.187 59.252 390.29 58.9656 390.479 58.739C390.667 58.5123 390.931 58.3601 391.221 58.3093C391.512 58.2585 391.811 58.3124 392.066 58.4616C392.321 58.6107 392.514 58.8454 392.612 59.1237C397.903 74.3505 388.732 105.768 367.026 139.502Z" fill="white"/>
<path d="M304.032 264.028C315.925 247.138 305.843 219.559 281.514 202.429C257.185 185.299 227.822 185.104 215.929 201.994C204.037 218.884 214.118 246.463 238.447 263.593C262.776 280.724 292.139 280.918 304.032 264.028Z" fill="#407BFF"/>
<path opacity="0.5" d="M304.032 264.028C315.925 247.138 305.843 219.559 281.514 202.429C257.185 185.299 227.822 185.104 215.929 201.994C204.037 218.884 214.118 246.463 238.447 263.593C262.776 280.724 292.139 280.918 304.032 264.028Z" fill="white"/>
<path opacity="0.1" d="M294.89 183.289C275.56 169.673 253.631 165.781 239.627 172.143L217.816 199.633C230.75 185.194 258.393 186.182 281.509 202.455C304.626 218.728 314.891 244.467 305.625 261.481L323.933 232.086C325.508 216.647 314.432 197.046 294.89 183.289Z" fill="black"/>
<path opacity="0.2" d="M325.849 94.6566C320.487 103.146 316.443 119.031 332.375 130.237C348.307 141.442 361.899 132.306 368.072 124.358L325.849 94.6566Z" fill="black"/>
<path d="M371.835 114.575C370.012 129.743 352.481 140.807 334.079 127.85C315.678 114.892 320.181 94.6567 333.844 87.8723C342.263 83.6629 352.987 85.5207 360.324 90.6237C367.661 95.7267 372.964 105.168 371.835 114.575Z" fill="white"/>
<path d="M336.584 124.264C329.424 119.231 325.755 112.646 326.272 105.756C326.507 102.782 327.508 99.9201 329.177 97.4476C330.846 94.975 333.126 92.9766 335.797 91.6465C342.193 88.4483 351.247 89.4477 357.819 94.0687C364.392 98.6896 368.402 106.897 367.52 113.999C367.17 116.953 366.063 119.766 364.306 122.166C362.548 124.566 360.201 126.471 357.49 127.697C351.211 130.542 343.745 129.308 336.584 124.264Z" fill="#407BFF"/>
<path opacity="0.3" d="M336.584 124.264C329.424 119.231 325.755 112.646 326.272 105.756C326.507 102.782 327.508 99.9201 329.177 97.4476C330.846 94.975 333.126 92.9766 335.797 91.6465C342.193 88.4483 351.247 89.4477 357.819 94.0687C364.392 98.6896 368.402 106.897 367.52 113.999C367.17 116.953 366.063 119.766 364.306 122.166C362.548 124.566 360.201 126.471 357.49 127.697C351.211 130.542 343.745 129.308 336.584 124.264Z" fill="black"/>
<path d="M336.584 124.264C329.423 119.231 325.626 112.835 325.908 106.274C326.03 103.484 326.92 100.783 328.48 98.4672C330.041 96.1516 332.21 94.3121 334.75 93.1516C340.899 90.3061 349.777 91.5525 356.349 96.1852C362.922 100.818 367.085 108.755 366.473 115.504C366.236 118.29 365.231 120.956 363.571 123.206C361.911 125.456 359.659 127.202 357.067 128.25C351.035 130.731 343.745 129.308 336.584 124.264Z" fill="#407BFF"/>
<path opacity="0.2" d="M336.584 124.264C329.423 119.231 325.626 112.835 325.908 106.274C326.03 103.484 326.92 100.783 328.48 98.4672C330.041 96.1516 332.21 94.3121 334.75 93.1516C340.899 90.3061 349.777 91.5525 356.349 96.1852C362.922 100.818 367.085 108.755 366.473 115.504C366.236 118.29 365.231 120.956 363.571 123.206C361.911 125.456 359.659 127.202 357.067 128.25C351.035 130.731 343.745 129.308 336.584 124.264Z" fill="white"/>
<path opacity="0.3" d="M361.335 100.83L328.236 115.433C326.594 112.667 325.778 109.489 325.884 106.274C325.947 104.759 326.245 103.264 326.766 101.841L348.131 92.4344C353.316 93.7486 357.939 96.7012 361.312 100.853L361.335 100.83Z" fill="white"/>
<path opacity="0.3" d="M366.085 110.248L335.714 123.629C333.888 122.289 332.223 120.742 330.752 119.019L363.793 104.439C364.825 106.259 365.597 108.214 366.085 110.248Z" fill="white"/>
<path opacity="0.1" d="M399.196 84.0627C398.185 75.9496 391.953 66.5666 382.1 59.6293C372.246 52.692 361.323 49.9877 353.339 51.7631C366.92 46.2251 379.09 46.0134 387.508 51.9395C395.927 57.8656 399.831 69.4121 399.196 84.0627Z" fill="black"/>
<path opacity="0.5" d="M281.496 230.955C285.201 225.693 282.2 217.2 274.793 211.984C267.386 206.769 258.378 206.806 254.673 212.068C250.968 217.33 253.969 225.824 261.376 231.039C268.783 236.254 277.791 236.217 281.496 230.955Z" fill="#407BFF"/>
<path opacity="0.5" d="M246.564 226.018C242.86 231.274 233.853 231.321 226.446 226.101C219.038 220.88 216.028 212.391 219.732 207.135C223.436 201.879 232.454 201.832 239.862 207.052C247.269 212.273 250.221 220.762 246.564 226.018Z" fill="#407BFF"/>
<path opacity="0.5" d="M297.959 262.245C294.255 267.513 285.248 267.548 277.841 262.327C270.433 257.107 267.435 248.617 271.139 243.361C274.842 238.106 283.849 238.059 291.257 243.279C298.664 248.5 301.663 256.989 297.959 262.245Z" fill="#407BFF"/>
<path opacity="0.5" d="M263.025 257.295C259.321 262.551 250.315 262.586 242.907 257.377C235.499 252.168 232.501 243.667 236.205 238.4C239.909 233.132 248.915 233.108 256.323 238.317C263.731 243.526 266.682 252.027 263.025 257.295Z" fill="#407BFF"/>
<path opacity="0.5" d="M281.509 230.98C281.118 231.536 280.66 232.041 280.145 232.485C282.203 227.241 279.099 219.963 272.479 215.307C265.859 210.651 257.97 210.18 253.725 213.872C253.974 213.246 254.294 212.651 254.677 212.097C258.381 206.841 267.4 206.794 274.807 212.015C282.215 217.235 285.201 225.713 281.509 230.98Z" fill="#407BFF"/>
<path opacity="0.5" d="M246.564 226.018C246.174 226.571 245.72 227.076 245.212 227.523C247.27 222.268 244.177 215.001 237.546 210.333C230.914 205.665 223.036 205.207 218.792 208.91C219.038 208.283 219.358 207.687 219.744 207.135C223.448 201.867 232.454 201.832 239.862 207.053C247.27 212.273 250.221 220.751 246.564 226.018Z" fill="#407BFF"/>
<path opacity="0.5" d="M297.959 262.257C297.568 262.806 297.114 263.307 296.607 263.75C298.664 258.494 295.56 251.228 288.94 246.572C282.32 241.915 274.431 241.433 270.186 245.149C270.43 244.517 270.75 243.917 271.138 243.362C274.842 238.094 283.849 238.059 291.257 243.279C298.664 248.5 301.674 256.989 297.959 262.257Z" fill="#407BFF"/>
<path opacity="0.5" d="M263.025 257.295C262.641 257.849 262.187 258.351 261.673 258.788C263.731 253.544 260.627 246.266 254.007 241.61C247.387 236.953 239.497 236.483 235.253 240.187C235.495 239.554 235.815 238.954 236.205 238.4C239.909 233.132 248.916 233.108 256.323 238.317C263.731 243.526 266.682 252.027 263.025 257.295Z" fill="#407BFF"/>
<path d="M274.29 133.658C274.29 133.658 258.416 154.258 244.589 171.99C242.625 174.462 240.052 176.38 237.123 177.558C234.194 178.735 231.009 179.13 227.88 178.704C215.805 177.21 196.134 185.758 196.134 185.758C196.134 185.758 233.348 124.628 274.29 133.658Z" fill="#407BFF"/>
<path opacity="0.3" d="M274.29 133.658C274.29 133.658 258.416 154.258 244.589 171.99C242.625 174.462 240.052 176.38 237.123 177.558C234.194 178.735 231.009 179.13 227.88 178.704C215.805 177.21 196.134 185.758 196.134 185.758C196.134 185.758 233.348 124.628 274.29 133.658Z" fill="black"/>
<path d="M348.73 186.088C348.73 186.088 334.75 207.969 322.651 226.959C320.986 229.641 320.048 232.709 319.928 235.864C319.809 239.018 320.512 242.149 321.969 244.949C327.448 255.825 326.014 277.272 326.014 277.272C326.014 277.272 371.035 221.574 348.73 186.088Z" fill="#407BFF"/>
<path opacity="0.3" d="M348.73 186.088C348.73 186.088 334.75 207.969 322.651 226.959C320.986 229.641 320.048 232.709 319.928 235.864C319.809 239.018 320.512 242.149 321.969 244.949C327.448 255.825 326.014 277.272 326.014 277.272C326.014 277.272 371.035 221.574 348.73 186.088Z" fill="black"/>
<path d="M400.019 343.4C414.705 307.467 351.211 297.284 326.084 306.303C300.957 315.321 275.336 322.023 274.348 297.978C273.361 273.933 292.715 259.023 283.484 253.473C278.37 250.393 276.912 255.825 274.384 263.75C266.647 288.031 222.824 293.816 242.99 328.961C263.155 364.106 252.396 356.475 218.474 370.573C184.552 384.671 202.012 425.271 234.829 425.271H432.46C523.044 425.271 437.281 251.886 400.019 343.4Z" fill="#407BFF"/>
<path opacity="0.6" d="M400.019 343.4C414.705 307.467 351.211 297.284 326.084 306.303C300.957 315.321 275.336 322.023 274.348 297.978C273.361 273.933 292.715 259.023 283.484 253.473C278.37 250.393 276.912 255.825 274.384 263.75C266.647 288.031 222.824 293.816 242.99 328.961C263.155 364.106 252.396 356.475 218.474 370.573C184.552 384.671 202.012 425.271 234.829 425.271H432.46C523.044 425.271 437.281 251.886 400.019 343.4Z" fill="white"/>
<path d="M233.101 218.152C230.467 209.004 216.216 220.504 202.177 234.437C188.138 248.371 181.212 280.176 167.632 296.755C154.051 313.334 115.167 328.314 130.37 353.265C152.793 390.032 101.257 425.307 162.294 425.307H287.482C310.375 425.307 335.197 397.311 299.546 378.274C263.896 359.238 210.49 403.625 196.075 361.284C188.926 340.272 214.888 349.914 202.859 315.509C190.831 281.105 191.63 271.734 197.756 256.401C212.665 219.034 237.158 232.05 233.101 218.152Z" fill="#407BFF"/>
<path opacity="0.6" d="M233.101 218.152C230.467 209.004 216.216 220.504 202.177 234.437C188.138 248.371 181.212 280.176 167.632 296.755C154.051 313.334 115.167 328.314 130.37 353.265C152.793 390.032 101.257 425.307 162.294 425.307H287.482C310.375 425.307 335.197 397.311 299.546 378.274C263.896 359.238 210.49 403.625 196.075 361.284C188.926 340.272 214.888 349.914 202.859 315.509C190.831 281.105 191.63 271.734 197.756 256.401C212.665 219.034 237.158 232.05 233.101 218.152Z" fill="white"/>
<path d="M259.051 222.373C262.155 216.706 272.808 220.104 272.573 227.523C272.338 234.943 244.753 244.667 249.88 270.288C255.006 295.909 304.249 297.743 315.808 323.411C327.366 349.079 282.591 352.677 295.948 368.727C309.305 384.776 350.529 347.915 379.901 357.392C409.273 366.869 438.621 425.271 384.745 425.271H218.733C182.635 425.271 156.273 350.737 190.96 320.072C225.646 289.406 197.662 299.366 210.608 279.718C223.553 260.07 247.14 244.102 259.051 222.373Z" fill="#407BFF"/>
<path opacity="0.8" d="M259.051 222.373C262.155 216.706 272.808 220.104 272.573 227.523C272.338 234.943 244.753 244.667 249.88 270.288C255.006 295.909 304.249 297.743 315.808 323.411C327.366 349.079 282.591 352.677 295.948 368.727C309.305 384.776 350.529 347.915 379.901 357.392C409.273 366.869 438.621 425.271 384.745 425.271H218.733C182.635 425.271 156.273 350.737 190.96 320.072C225.646 289.406 197.662 299.366 210.608 279.718C223.553 260.07 247.14 244.102 259.051 222.373Z" fill="white"/>
</svg>
